<svg xmlns="http://www.w3.org/2000/svg" width="16" height="17" viewBox="0 0 16 17" fill="none">
<path d="M2 4.5H3.33333H14" stroke="#FAFAFA" stroke-width="1.5" stroke-linecap="round" stroke-linejoin="round"/>
<path d="M12.6666 4.50004V13.8334C12.6666 14.187 12.5261 14.5261 12.2761 14.7762C12.026 15.0262 11.6869 15.1667 11.3333 15.1667H4.66659C4.31296 15.1667 3.97382 15.0262 3.72378 14.7762C3.47373 14.5261 3.33325 14.187 3.33325 13.8334V4.50004M5.33325 4.50004V3.16671C5.33325 2.81309 5.47373 2.47395 5.72378 2.2239C5.97383 1.97385 6.31296 1.83337 6.66659 1.83337H9.33325C9.68688 1.83337 10.026 1.97385 10.2761 2.2239C10.5261 2.47395 10.6666 2.81309 10.6666 3.16671V4.50004" stroke="#FAFAFA" stroke-width="1.5" stroke-linecap="round" stroke-linejoin="round"/>
<path d="M6.66675 7.83337V11.8334" stroke="#FAFAFA" stroke-width="1.5" stroke-linecap="round" stroke-linejoin="round"/>
<path d="M9.33325 7.83337V11.8334" stroke="#FAFAFA" stroke-width="1.5" stroke-linecap="round" stroke-linejoin="round"/>
</svg>